# xmcd CD database file
#
# Track frame offsets:
#	150
#	12690
#	22565
#	32079
#	39229
#	51250
#	64411
#	77876
#	87666
#	94594
#	106083
#	117316
#	135936
#	144228
#	162691
#	176104
#	188505
#	204359
#
# Disc length: 2994 seconds
#
# Revision: 0
# Processed by: cddbd v1.5.2PL0 Copyright (c) Steve Scherf et al.
# Submitted via: CDex 1.51
#
DISCID=ea0bb012
DTITLE=The Louisville Leopards - Fresh Beats
DYEAR=2005
DGENRE=Jazz
TTITLE0=Jump in the Line
TTITLE1=Batman
TTITLE2=On the Sunny Side of the Street
TTITLE3=Linus and Lucy
TTITLE4=The Whistler
TTITLE5=Bluespar
TTITLE6=St. Thomas
TTITLE7=Louie Louie
TTITLE8=He's a Pirate
TTITLE9=Charlie Brown Theme
TTITLE10=Lady Be Good
TTITLE11=Take 5-4
TTITLE12=Rock Around the Clock
TTITLE13=Afro Blues
TTITLE14=Watermelon Man
TTITLE15=Log Cabin Blues
TTITLE16=Caravan
TTITLE17=Fiddlin' Around
EXTD=YEAR: 2005
EXTT0=
EXTT1=
EXTT2=
EXTT3=
EXTT4=
EXTT5=
EXTT6=
EXTT7=
EXTT8=
EXTT9=
EXTT10=
EXTT11=
EXTT12=
EXTT13=
EXTT14=
EXTT15=
EXTT16=
EXTT17=
PLAYORDER=
